<svg width="12" height="12" viewBox="0 0 12 12" fill="none" xmlns="http://www.w3.org/2000/svg">
<path fill-rule="evenodd" clip-rule="evenodd" d="M11.2932 2.79392C10.1416 3.9455 7.43872 6.64787 6.77951 7.30492C6.63705 7.44683 6.46751 7.55896 6.28551 7.63208C5.75685 7.85146 4.46714 8.35737 4.08797 8.38283C3.8621 8.398 3.64055 8.31458 3.48022 8.15425C3.31989 7.99392 3.23647 7.77237 3.25164 7.5465C3.2771 7.16733 3.78301 5.87871 3.9986 5.35221C4.07389 5.16533 4.18601 4.99579 4.32847 4.85387L8.84055 0.34125C9.05885 0.122958 9.35568 0 9.66443 0C9.97318 0 10.27 0.122958 10.4883 0.34125L11.2932 1.14617C11.5115 1.36446 11.6345 1.66129 11.6345 1.97004C11.6345 2.27879 11.5115 2.57562 11.2932 2.79392ZM4.06576 7.56871C4.43626 7.52212 5.51905 7.07037 5.97405 6.88133C5.97568 6.88079 5.9773 6.88025 5.97839 6.87971C6.06343 6.84558 6.14035 6.79467 6.2048 6.73021L6.20535 6.72967C6.86564 6.07262 9.56747 3.37079 10.7185 2.21921C10.7846 2.15312 10.822 2.06375 10.822 1.97004C10.822 1.87633 10.7846 1.78696 10.7185 1.72087L9.9136 0.915958C9.84751 0.849875 9.75814 0.8125 9.66443 0.8125C9.57072 0.8125 9.48135 0.849875 9.41526 0.915958L4.90264 5.42858C4.83764 5.49304 4.78672 5.5705 4.7526 5.65554L4.75151 5.65771C4.56464 6.11379 4.11235 7.19767 4.06576 7.56871Z" fill="white"/>
<path fill-rule="evenodd" clip-rule="evenodd" d="M10.2201 3.29225C10.3783 3.45096 10.3783 3.70825 10.2201 3.86696C10.0614 4.02567 9.80413 4.02567 9.64543 3.86696L7.76747 1.989C7.60876 1.83029 7.60876 1.573 7.76747 1.41429C7.92618 1.25613 8.18347 1.25613 8.34218 1.41429L10.2201 3.29225Z" fill="white"/>
<path fill-rule="evenodd" clip-rule="evenodd" d="M6.90465 6.6078C7.06336 6.76597 7.06336 7.0238 6.90465 7.18197C6.74649 7.34067 6.48865 7.34067 6.33049 7.18197L4.45253 5.30401C4.29382 5.14584 4.29382 4.88801 4.45253 4.72984C4.61069 4.57113 4.86853 4.57113 5.02669 4.72984L6.90465 6.6078Z" fill="white"/>
<path fill-rule="evenodd" clip-rule="evenodd" d="M3.92708 1.07196C4.15133 1.07196 4.33333 1.25396 4.33333 1.47821C4.33333 1.70246 4.15133 1.88446 3.92708 1.88446H2.03125C1.35796 1.88446 0.8125 2.42992 0.8125 3.10321V9.60321C0.8125 9.92659 0.940875 10.2364 1.16946 10.465C1.39804 10.6936 1.70787 10.822 2.03125 10.822H9.07292C9.39629 10.822 9.70612 10.6936 9.93471 10.465C10.1633 10.2364 10.2917 9.92659 10.2917 9.60321V7.70738C10.2917 7.48313 10.4737 7.30113 10.6979 7.30113C10.9222 7.30113 11.1042 7.48313 11.1042 7.70738V9.60321C11.1042 10.1422 10.8902 10.6584 10.5094 11.0397C10.1281 11.4205 9.61187 11.6345 9.07292 11.6345H2.03125C1.49229 11.6345 0.976083 11.4205 0.59475 11.0397C0.213958 10.6584 0 10.1422 0 9.60321V3.10321C0 1.98142 0.909458 1.07196 2.03125 1.07196H3.92708Z" fill="white"/>
</svg>
