<svg width="20" height="20" viewBox="0 0 20 20" fill="none" xmlns="http://www.w3.org/2000/svg">
<path d="M18.4626 7.72867L16.2884 5.55445C16.0596 5.32566 15.6886 5.32566 15.4598 5.55445C15.2309 5.78324 15.2309 6.15426 15.4598 6.38309L16.6337 7.55707H13.986V0.585938C13.986 0.262344 13.7236 0 13.4 0H1.95178C1.9512 0 1.95073 7.8125e-05 1.95014 7.8125e-05C1.84866 0.000351563 1.74725 0.0269141 1.65659 0.0798437C1.47655 0.184805 1.36584 0.3775 1.36584 0.585938V15.7C1.36584 15.9112 1.47948 16.1061 1.66327 16.21L8.22858 19.9241C8.31815 19.9747 8.4176 20 8.51709 20C8.61909 20 8.72116 19.9734 8.81229 19.9202C8.99233 19.8152 9.10303 19.6225 9.10303 19.4141V16.2859H13.4C13.7236 16.2859 13.9859 16.0236 13.9859 15.7V8.72891H16.6337L15.4597 9.90289C15.2309 10.1317 15.2309 10.5027 15.4597 10.7315C15.5741 10.8459 15.7241 10.9031 15.874 10.9031C16.0239 10.9031 16.1739 10.8459 16.2883 10.7315L18.4625 8.5573C18.6914 8.32848 18.6914 7.95746 18.4626 7.72867ZM7.93116 18.4094L2.53772 15.3583V1.59063L7.93116 4.64168V18.4094ZM12.814 15.1141H9.10303V4.29996C9.10303 4.08879 8.9894 3.89395 8.80561 3.78996L4.17756 1.17188H12.814V7.55703H11.4469C11.1233 7.55703 10.861 7.81938 10.861 8.14297C10.861 8.46656 11.1233 8.72891 11.4469 8.72891H12.814V15.1141Z" fill="white"/>
</svg>
