<svg width="21" height="19" viewBox="0 0 21 19" fill="none" xmlns="http://www.w3.org/2000/svg">
<path d="M18.9314 9.03499V2.74316L19.8139 1.94468C19.9741 1.79976 19.9741 1.56477 19.8139 1.41982L18.3637 0.107798C18.211 -0.0359327 17.9364 -0.0359327 17.7836 0.107798L16.263 1.48358H4.9855C4.75896 1.48358 4.57532 1.64976 4.57532 1.85469V4.89782H2.47884C1.6998 4.89782 1.06604 5.47126 1.06604 6.17607V17.7217C1.06604 18.4265 1.69984 19 2.47888 19H18.5212C19.3003 19 19.934 18.4265 19.934 17.7217V10.2583C19.934 9.68246 19.511 9.19438 18.9314 9.03499ZM18.0737 0.89507L18.9438 1.6823L14.1782 5.99404L13.308 5.20681L18.0737 0.89507ZM12.6065 5.84152L12.728 5.73163L13.5981 6.51887L13.4766 6.62875L12.29 6.9151L12.6065 5.84152ZM3.57265 10.2583V17.7217C3.57265 18.0173 3.30686 18.2577 2.98016 18.2577H2.47888C2.15218 18.2577 1.88639 18.0173 1.88639 17.7217V6.17607C1.88639 5.88048 2.15218 5.64004 2.47884 5.64004H4.57528V9.03499C3.99567 9.19438 3.57265 9.68246 3.57265 10.2583ZM19.1137 17.7217C19.1137 18.0173 18.8479 18.2578 18.5212 18.2578H4.26269C4.34632 18.0946 4.393 17.913 4.393 17.7217V10.2583C4.393 9.96269 4.65879 9.72225 4.98546 9.72225H9.90742C10.4511 9.70399 10.4507 8.9981 9.90742 8.98003H5.39567V2.2258H15.4427L11.9485 5.38717C11.8975 5.43333 11.8608 5.49086 11.8423 5.55394L11.3148 7.34321C11.2771 7.47117 11.3176 7.60763 11.4211 7.70126C11.5247 7.79526 11.677 7.83144 11.8168 7.79741L13.7944 7.32024C13.8642 7.30343 13.9277 7.27025 13.9788 7.22409L18.1111 3.48538V8.98003H13.599C13.0553 8.99829 13.0557 9.70417 13.599 9.72225H18.5212C18.8479 9.72225 19.1136 9.96269 19.1136 10.2583V17.7217H19.1137Z" fill="white"/>
<path d="M6.83129 4.09989H11.7534C12.297 4.08163 12.2966 3.37574 11.7534 3.35767H6.83129C6.28764 3.37592 6.28805 4.08181 6.83129 4.09989Z" fill="white"/>
<path d="M10.175 5.23181H6.83129C6.28764 5.25007 6.28805 5.95596 6.83129 5.97403H10.175C10.7186 5.95577 10.7182 5.24988 10.175 5.23181Z" fill="white"/>
<path d="M9.58023 7.1059H6.83129C6.28764 7.12415 6.28805 7.83004 6.83129 7.84812H9.58023C10.1238 7.82986 10.1234 7.12397 9.58023 7.1059Z" fill="white"/>
<path d="M11.7533 8.98004H11.753C11.5265 8.98004 11.343 9.14622 11.343 9.35114C11.3632 9.8428 12.1434 9.84276 12.1635 9.35114C12.1635 9.14622 11.9798 8.98004 11.7533 8.98004Z" fill="white"/>
</svg>
