<svg width="88" height="88" viewBox="0 0 88 88" fill="none" xmlns="http://www.w3.org/2000/svg">
<path d="M44 2.75001C35.7437 2.74466 27.676 5.21868 20.842 9.85159C14.008 14.4845 8.72267 21.0628 5.67066 28.7343C2.61865 36.4058 1.94059 44.8171 3.72432 52.8784C5.50806 60.9397 9.67139 68.2797 15.675 73.9475L72.3525 73.92C78.3494 68.2494 82.506 60.9091 84.2839 52.8495C86.0619 44.7899 85.3795 36.3821 82.325 28.7147C79.2705 21.0473 73.9846 14.4735 67.1516 9.84423C60.3187 5.215 52.2534 2.7436 44 2.75001Z" fill="#FEC757"/>
<path d="M7.19675 44C7.20561 33.4522 11.2566 23.309 18.5162 15.657C25.7758 8.00501 35.692 3.42627 46.2247 2.86276C45.4822 2.82151 44.7507 2.75001 44 2.75001C35.7437 2.74466 27.676 5.21868 20.842 9.85158C14.008 14.4845 8.72267 21.0628 5.67066 28.7343C2.61865 36.4058 1.94059 44.8171 3.72432 52.8784C5.50806 60.9397 9.67139 68.2797 15.675 73.9475H20.119C16.0302 70.1059 12.7736 65.4657 10.5508 60.3145C8.32804 55.1632 7.18645 49.6104 7.19675 44Z" fill="#FFCE66"/>
<path d="M73.5048 75.0748C69.6445 71.2077 65.0386 68.1654 59.9666 66.1326C54.8947 64.0999 49.4626 63.1191 44 63.2498C38.5344 63.1235 33.1002 64.1104 28.028 66.1503C22.9557 68.1903 18.3515 71.2407 14.4953 75.1161C14.1457 75.5134 13.9162 76.0018 13.8336 76.5245C13.7511 77.0473 13.8188 77.5827 14.0289 78.0684C14.239 78.5541 14.5829 78.97 15.0204 79.2677C15.458 79.5654 15.9711 79.7326 16.5 79.7498L71.5 79.7058C72.0304 79.6926 72.546 79.5279 72.9859 79.2311C73.4257 78.9343 73.7714 78.5179 73.9822 78.0309C74.193 77.544 74.2601 77.0069 74.1755 76.4831C74.0909 75.9593 73.8581 75.4706 73.5048 75.0748Z" fill="#FE737D"/>
<path d="M17.8393 78.1001C17.6257 77.6078 17.5609 77.0637 17.6527 76.535C17.7446 76.0063 17.9892 75.516 18.3563 75.1246C25.6719 67.7552 35.5729 63.5288 45.9553 63.3436C45.309 63.3188 44.6738 63.2556 44.0303 63.2556H44C38.5345 63.1281 33.1002 64.1142 28.0278 66.1537C22.9555 68.1932 18.3512 71.2436 14.4953 75.1191C14.1285 75.5103 13.884 76.0002 13.7921 76.5285C13.7001 77.0568 13.7646 77.6005 13.9777 78.0926C14.1907 78.5847 14.543 79.0038 14.9911 79.2983C15.4393 79.5928 15.9637 79.7498 16.5 79.7501H20.35C19.8166 79.7482 19.2952 79.5912 18.8494 79.2983C18.4036 79.0053 18.0526 78.589 17.8393 78.1001Z" fill="#FF6572"/>
<path d="M44 57.2109C53.1127 57.2109 60.5 49.8236 60.5 40.7109C60.5 31.5982 53.1127 24.2109 44 24.2109C34.8873 24.2109 27.5 31.5982 27.5 40.7109C27.5 49.8236 34.8873 57.2109 44 57.2109Z" fill="#FE737D"/>
<path d="M30.8935 40.7002C30.8979 36.6189 32.4126 32.6836 35.1459 29.6528C37.8792 26.6219 41.6376 24.71 45.6968 24.2854C45.1468 24.2304 44.572 24.2002 44 24.2002C41.7612 24.1995 39.5457 24.6544 37.4884 25.5372C35.431 26.4201 33.5748 27.7124 32.0328 29.3354C30.4908 30.9585 29.2952 32.8783 28.5189 34.9782C27.7425 37.078 27.4015 39.3139 27.5168 41.5497C27.6321 43.7855 28.2011 45.9745 29.1893 47.9833C30.1775 49.9922 31.5642 51.779 33.2649 53.2349C34.9657 54.6907 36.9449 55.7853 39.0822 56.4519C41.2194 57.1184 43.4699 57.3431 45.6968 57.1122C41.6381 56.6877 37.8801 54.7761 35.1469 51.7459C32.4136 48.7156 30.8985 44.781 30.8935 40.7002Z" fill="#FF6572"/>
</svg>
