<svg width="25" height="24" viewBox="0 0 25 24" fill="none" xmlns="http://www.w3.org/2000/svg">
<g clip-path="url(#clip0_78_148)">
<path d="M2.19781 4.58867C2.46407 4.80139 2.83013 4.85743 3.1521 4.73478C3.47408 4.61212 3.7005 4.33037 3.74239 4.00027H14.9999C15.6902 4.00027 16.2499 3.46301 16.2499 2.80027V2.00027C16.2499 1.33753 15.6902 0.800272 14.9999 0.800272H3.74239C3.70054 0.470251 3.47423 0.188542 3.15238 0.0658176C2.83053 -0.0569065 2.46455 -0.0010391 2.19823 0.211472L0.336559 1.69987C0.122063 1.8752 -0.00120747 2.13226 -0.000485124 2.40271C0.000237226 2.67315 0.124879 2.9296 0.340309 3.10387L2.19781 4.58867ZM0.874892 2.31147L2.73198 0.825872C2.75131 0.809738 2.77595 0.800672 2.80156 0.800272C2.81867 0.800651 2.83553 0.804323 2.85114 0.811072C2.89205 0.827509 2.91809 0.866527 2.91656 0.909072V1.20027C2.91656 1.42119 3.10311 1.60027 3.33323 1.60027H14.9999C15.23 1.60027 15.4166 1.77936 15.4166 2.00027V2.80027C15.4166 3.02119 15.23 3.20027 14.9999 3.20027H3.33323C3.10311 3.20027 2.91656 3.37936 2.91656 3.60027V3.89147C2.91823 3.93382 2.89255 3.97278 2.85198 3.98947C2.81253 4.00782 2.7655 4.00184 2.73239 3.97427L0.877809 2.49187C0.849621 2.46913 0.833309 2.43562 0.833226 2.40027C0.832984 2.36626 0.848198 2.33384 0.874892 2.31147Z" fill="white"/>
<path d="M22.8021 4.21163C22.5358 3.99891 22.1698 3.94287 21.8478 4.06553C21.5258 4.18818 21.2994 4.46993 21.2575 4.80003H10C9.30964 4.80003 8.75 5.33729 8.75 6.00003V6.80003C8.75 7.46277 9.30964 8.00003 10 8.00003H21.2575C21.298 8.33079 21.5243 8.61358 21.8467 8.73652C22.1691 8.85946 22.5358 8.80275 22.8017 8.58883L24.6633 7.10043C24.8778 6.9251 25.0011 6.66804 25.0004 6.39759C24.9997 6.12715 24.875 5.8707 24.6596 5.69643L22.8021 4.21163ZM24.125 6.48883L22.2671 7.97443C22.2336 8.00117 22.187 8.00686 22.1476 7.98902C22.1082 7.97118 22.0831 7.93304 22.0833 7.89123V7.60003C22.0833 7.37911 21.8968 7.20003 21.6667 7.20003H10C9.76988 7.20003 9.58333 7.02094 9.58333 6.80003V6.00003C9.58333 5.77911 9.76988 5.60003 10 5.60003H21.6667C21.8968 5.60003 22.0833 5.42094 22.0833 5.20003V4.90883C22.0817 4.86648 22.1073 4.82752 22.1479 4.81083C22.1873 4.79204 22.2346 4.79805 22.2675 4.82603L24.1213 6.30843C24.1498 6.33101 24.1664 6.36455 24.1667 6.40003C24.1669 6.43404 24.1517 6.46646 24.125 6.48883Z" fill="white"/>
<path d="M24.1667 10.8L21.9937 10.8032C21.4794 10.8017 21.0258 11.1264 20.8804 11.6H19.5583C19.3656 11.6007 19.1755 11.5576 19.0033 11.4744L16.7629 10.3968C15.651 9.86879 14.3461 9.86879 13.2342 10.3968L13.1246 10.4496L13.0129 10.3952C11.9009 9.86762 10.5962 9.86762 9.48417 10.3952L7.24458 11.4724C7.07333 11.5562 6.88387 11.5999 6.69167 11.6H4.11958C3.97428 11.1266 3.52111 10.8021 3.00708 10.8032L0.833333 10.8C0.373096 10.8 0 11.1582 0 11.6V18C0 18.4418 0.373096 18.8 0.833333 18.8L2.92458 18.8032L4.17458 19.3032C4.15531 19.8272 4.4322 20.3205 4.89875 20.5932C5.12802 20.7251 5.39022 20.7949 5.6575 20.7952C5.78404 20.795 5.91004 20.7794 6.0325 20.7488C6.04333 20.746 6.05333 20.7408 6.06417 20.7376C6.1539 21.1216 6.40295 21.4539 6.75375 21.6576C6.98306 21.7888 7.24513 21.8579 7.51208 21.8576C7.63862 21.8574 7.76462 21.8418 7.88708 21.8112C7.89792 21.8084 7.9075 21.8032 7.91833 21.8004C8.00886 22.1849 8.259 22.5172 8.61083 22.7204C8.95043 22.9167 9.3583 22.9728 9.74167 22.876C9.75125 22.8736 9.76 22.8688 9.76958 22.8664C9.85755 23.2449 10.1029 23.5724 10.4487 23.7728L10.4546 23.776L10.4662 23.7832C10.6947 23.9152 10.9563 23.985 11.2229 23.9852C11.3494 23.9852 11.4755 23.9698 11.5979 23.9392C11.8724 23.8709 12.1204 23.7278 12.3121 23.5272L12.555 23.7084C12.8104 23.8977 13.124 24.0004 13.4467 24.0004C13.5137 24.0003 13.5807 23.9959 13.6471 23.9872C14.0241 23.9395 14.3665 23.7515 14.6004 23.4636C14.6071 23.4564 14.6138 23.4484 14.6196 23.4408C14.8604 23.1349 14.9625 22.7487 14.9029 22.3696L14.9213 22.3676C15.3081 22.3205 15.6586 22.1253 15.8933 21.8264C16.0917 21.5795 16.1995 21.2766 16.2 20.9648C16.2946 20.9702 16.3894 20.9669 16.4833 20.9548C16.8694 20.9074 17.2192 20.7124 17.4533 20.414C17.6538 20.166 17.7626 19.8611 17.7625 19.5472C17.7628 19.3873 17.7355 19.2285 17.6817 19.0772C17.8866 19.0263 18.077 18.9316 18.2383 18.8L21.9883 18.8032H21.9908L24.1667 18.8C24.6269 18.8 25 18.4418 25 18V11.6C25 11.1582 24.6269 10.8 24.1667 10.8ZM16.3929 11.1136L18.6283 12.1888C18.9169 12.3279 19.2354 12.4003 19.5583 12.4H20.8775L21.5262 18.0024L18.7175 18C18.7471 17.8707 18.7581 17.7381 18.75 17.606C18.7024 17.1299 18.4445 16.6962 18.0417 16.4148L13.8333 13.5892C13.3013 13.2233 12.5651 13.3151 12.1479 13.7992L10.2129 16.0208C9.85386 16.43 9.22025 16.4895 8.78542 16.1548C8.68667 16.0794 8.62939 15.9647 8.63 15.8436C8.62996 15.7606 8.65755 15.6797 8.70875 15.6128L10.63 12.9772C10.9483 12.5409 11.3747 12.1876 11.8708 11.9492L13.6054 11.1148C14.4836 10.6979 15.5143 10.6975 16.3929 11.1136ZM0.833333 11.6L3.00708 11.6032C3.1012 11.6032 3.19086 11.6417 3.25361 11.709C3.31636 11.7764 3.34626 11.8662 3.33583 11.956L2.63542 18.0028L0.833333 18V11.6ZM5.32667 19.9068C5.00976 19.7207 4.9053 19.3259 5.09125 19.0172L5.27542 18.7152C5.36282 18.5686 5.50807 18.4621 5.67833 18.4196C5.732 18.4066 5.78714 18.4 5.8425 18.4C5.95996 18.4003 6.07514 18.4311 6.17583 18.4892C6.37996 18.6073 6.50352 18.8204 6.50042 19.0492C6.50093 19.1642 6.46989 19.2773 6.41042 19.3772L6.22625 19.6788C6.13883 19.8255 5.99364 19.9323 5.82333 19.9752C5.65493 20.0174 5.47592 19.9927 5.32667 19.9068ZM7.18167 20.9712C6.86491 20.785 6.76064 20.3902 6.94667 20.0816L7.13125 19.7788C7.21876 19.6326 7.36381 19.5264 7.53375 19.484C7.58738 19.4707 7.64252 19.4638 7.69792 19.4636C7.81538 19.4639 7.93057 19.4947 8.03125 19.5528C8.34152 19.7372 8.44685 20.1227 8.27083 20.4296V20.432L8.08208 20.744L8.07958 20.7488C7.992 20.893 7.84805 20.9975 7.67974 21.0393C7.51143 21.0811 7.33271 21.0566 7.18333 20.9712H7.18167ZM9.04167 22.0336C8.72483 21.8509 8.6179 21.4587 8.80083 21.1504L8.80417 21.146L8.98833 20.8432C8.99125 20.8388 8.99333 20.8336 8.99583 20.8288C9.08356 20.6868 9.22654 20.5842 9.39322 20.5436C9.55989 20.503 9.73654 20.5277 9.88417 20.6124C10.2025 20.7961 10.3089 21.1907 10.1233 21.4996L9.93417 21.8116C9.84724 21.9554 9.70393 22.0599 9.53623 22.1016C9.36854 22.1433 9.19042 22.1188 9.04167 22.0336ZM11.3912 23.1644C11.2236 23.207 11.0451 23.1825 10.8967 23.0964L10.8908 23.0928C10.5762 22.9112 10.4708 22.5212 10.6537 22.2156L10.7708 22.022L10.8454 21.8988C10.9618 21.7073 11.1753 21.5895 11.4062 21.5892C11.5254 21.5897 11.6421 21.621 11.7442 21.68C12.0598 21.8623 12.1651 22.2538 11.9808 22.56L11.7883 22.8776C11.7009 23.0208 11.557 23.1242 11.3892 23.1644H11.3912ZM16.8604 18.1756C16.679 18.0396 16.4171 18.0706 16.2754 18.2448C16.1338 18.419 16.1661 18.6704 16.3475 18.8064L16.6775 19.0544C16.8139 19.1551 16.9026 19.304 16.9241 19.4679C16.9455 19.6319 16.8979 19.7972 16.7917 19.9272C16.6909 20.0563 16.5402 20.141 16.3737 20.1623C16.2071 20.1835 16.0386 20.1394 15.9062 20.04L15.6325 19.8352C15.629 19.8321 15.6252 19.8293 15.6213 19.8268C15.4393 19.6944 15.1803 19.7273 15.0404 19.9004C14.9005 20.0735 14.9317 20.3225 15.1104 20.4588L15.1175 20.464C15.3992 20.6774 15.4496 21.0688 15.2304 21.3416C15.1293 21.4694 14.9792 21.553 14.8134 21.5738C14.6477 21.5945 14.4802 21.5507 14.3483 21.452C14.2224 21.3585 14.052 21.342 13.9092 21.4096C13.7789 21.4706 13.6908 21.5919 13.676 21.7302C13.6613 21.8686 13.722 22.0045 13.8367 22.0896C14.1076 22.2977 14.1641 22.6718 13.9658 22.9452L13.9508 22.9632C13.8504 23.0916 13.7001 23.1756 13.5342 23.196C13.3668 23.2179 13.1973 23.1747 13.0633 23.076L12.7537 22.8452C13.0828 22.1734 12.8292 21.3715 12.1667 20.9888C11.8274 20.7921 11.4195 20.7359 11.0362 20.8328C11.025 20.8356 11.0154 20.8412 11.0042 20.844C10.9137 20.4595 10.6636 20.1271 10.3117 19.924C9.97217 19.7278 9.56449 19.6717 9.18125 19.7684C9.17042 19.7712 9.16083 19.7764 9.15042 19.7792C9.06244 19.4015 8.81858 19.0742 8.47464 18.8723C8.13071 18.6704 7.71615 18.6111 7.32583 18.708C7.315 18.7108 7.30542 18.7164 7.29458 18.7192C7.20467 18.3352 6.95566 18.003 6.605 17.7992C6.26359 17.6035 5.85467 17.5473 5.46981 17.6434C5.08495 17.7395 4.75631 17.9798 4.5575 18.3104L4.42208 18.5328L3.45833 18.1496L4.1225 12.4H6.69167C7.01393 12.4004 7.33183 12.3285 7.62 12.19L9.85458 11.1148C10.5627 10.7807 11.3756 10.7141 12.1325 10.928L11.4971 11.234C10.8767 11.532 10.3436 11.9741 9.94625 12.52L8.0275 15.1524C7.64318 15.6693 7.74713 16.3846 8.26417 16.7808C9.05398 17.3865 10.2029 17.2768 10.8529 16.5336L12.7863 14.314C12.9262 14.1506 13.1746 14.1201 13.3529 14.2444L17.5479 17.0592C17.7548 17.2031 17.8888 17.4242 17.9167 17.668C17.9345 17.8438 17.8731 18.0185 17.7479 18.148C17.5016 18.3706 17.1212 18.3824 16.8604 18.1756ZM24.1667 18L22.365 18.0028L21.6667 11.956C21.6562 11.8661 21.6862 11.7761 21.7492 11.7087C21.8121 11.6414 21.902 11.603 21.9963 11.6032L24.1667 11.6V18Z" fill="white"/>
</g>
<defs>
<clipPath id="clip0_78_148">
<rect width="25" height="24" fill="white"/>
</clipPath>
</defs>
</svg>
