<svg width="24" height="26" viewBox="0 0 24 26" fill="none" xmlns="http://www.w3.org/2000/svg">
<path d="M22.5937 23.7726H22.3509C22.403 23.5531 22.3683 23.7138 22.3786 19.8328C22.3786 19.6224 22.208 19.4519 21.9977 19.4519C21.7872 19.4519 21.6167 19.6224 21.6167 19.8328V23.5441C21.6167 23.6679 21.5121 23.7726 21.3882 23.7726H10.6715C10.5477 23.7726 10.4429 23.668 10.4429 23.5441C10.4429 22.9323 10.4429 17.4791 10.4429 16.6081C10.4429 16.4842 10.5476 16.3795 10.6715 16.3795H21.3882C21.512 16.3795 21.6167 16.4842 21.6167 16.6081V18.0552C21.6167 18.2656 21.7873 18.4361 21.9977 18.4361C22.2081 18.4361 22.3786 18.2655 22.3786 18.0552V16.6081C22.3786 16.062 21.9342 15.6177 21.3882 15.6177H13.3108L12.4613 15.3288C12.3971 15.3067 12.354 15.2464 12.354 15.1785V14.2449C13.7367 13.4232 14.6251 12.0089 14.7873 10.4648C15.953 10.5188 16.7521 9.40574 16.2684 8.44049V5.33507C16.2684 3.08932 15.0471 2.3081 14.6739 2.12183C12.5219 -0.44719 8.08624 -0.82094 5.36076 1.76088C5.10939 1.99691 5.27829 2.41951 5.62162 2.41951C5.90219 2.41951 5.85938 2.22309 6.72652 1.65932C6.79076 1.61763 6.91527 1.54415 6.91014 1.54719C9.1562 0.199001 12.4694 0.612005 14.1397 2.67159C14.1825 2.72425 14.2345 2.7631 14.2981 2.78686C14.3475 2.80667 15.5065 3.29447 15.5065 5.33512V7.73931C15.2952 7.64983 15.0635 7.60397 14.8165 7.61088V6.36491C14.8165 6.04885 14.5784 5.78763 14.2627 5.75716C13.6226 5.69536 13.2638 5.27824 13.0756 4.93928C12.84 4.51505 12.2776 4.41339 11.9089 4.72849C10.2104 6.18047 8.25483 6.25421 6.91314 6.06063C5.89645 5.91382 4.95669 6.60775 4.79328 7.61134C4.54668 7.60067 4.30293 7.64429 4.07894 7.7392C4.1028 6.55295 3.90135 5.26885 4.84106 3.63029C4.94572 3.44778 4.8826 3.21505 4.70019 3.11034C4.51764 3.00563 4.2849 3.0688 4.18024 3.25121C3.60713 4.25058 3.33001 5.40509 3.3226 6.22567C3.3131 6.47135 3.31884 6.38142 3.31717 8.44034C2.83281 9.40691 3.63506 10.5186 4.7983 10.4646C4.96522 12.0537 5.90701 13.518 7.37378 14.3268V15.1783C7.37378 15.2462 7.33061 15.3065 7.26668 15.3285C5.7568 15.8564 7.53612 15.2145 3.57752 16.6183C3.23196 16.7207 3.30858 16.6941 3.17219 16.7497C2.32312 17.1063 1.7984 17.7882 1.62879 18.6269C0.440561 24.5952 0.485705 24.2568 0.49378 24.5813C0.53085 25.522 1.13271 25.9999 2.05957 25.9999C2.07465 25.9999 9.87084 25.9999 9.86383 25.9999C10.6366 25.9999 10.3394 25.9999 11.1121 25.9999C11.3226 25.9999 11.493 25.8294 11.493 25.619C11.493 25.4085 11.3225 25.2381 11.1121 25.2381H9.86388C9.33144 25.238 9.15513 24.5343 9.46622 24.5343C10.3215 24.5343 22.1074 24.5343 22.5939 24.5343C22.9055 24.5343 22.7271 25.2381 22.1962 25.2381H12.8897C12.6792 25.2381 12.5088 25.4086 12.5088 25.619C12.5088 25.8294 12.6793 25.9999 12.8897 25.9999H22.196C22.9197 25.9999 23.5086 25.411 23.5086 24.6873C23.5086 24.1829 23.0982 23.7726 22.5937 23.7726ZM14.8165 8.37295C15.2557 8.34975 15.649 8.64565 15.649 9.03819C15.649 9.43459 15.2516 9.72648 14.8165 9.70347V8.37295ZM4.7689 9.70342C4.32969 9.72673 3.93639 9.43073 3.93639 9.03819C3.93639 8.64179 4.33381 8.3499 4.7689 8.3729V9.70342ZM5.53681 10.1406C5.52717 9.96439 5.53189 10.0281 5.53072 8.06486C5.54215 8.00088 5.44876 7.47733 5.91305 7.07519C6.15782 6.86318 6.48272 6.76832 6.80426 6.81468C8.30145 7.03096 10.4885 6.94483 12.4039 5.30759L12.4095 5.30907C12.7774 5.97166 13.358 6.38995 14.0547 6.49842C14.0547 9.94154 14.0993 10.2772 13.9281 10.9588C13.8228 11.38 13.641 11.8053 13.4199 12.1622C11.1846 15.6953 5.74512 14.3063 5.53681 10.1406ZM3.97646 25.2382H2.05942C1.40733 25.2382 1.29044 24.9296 1.26149 24.6607C1.23133 24.3804 1.29348 24.2546 1.55577 22.8939H3.97646V25.2382ZM9.46606 23.7726V23.7726C8.84709 23.7726 8.36147 24.3721 8.62548 25.1223C8.6364 25.1534 8.65488 25.2006 8.67235 25.2382H4.73833C4.73833 22.6023 4.73833 24.3296 4.73833 21.6479C4.73833 21.4375 4.56781 21.267 4.35742 21.267C4.14698 21.267 3.97651 21.4375 3.97651 21.6479V22.1321H1.70745C2.42601 18.5256 2.38477 18.6765 2.46313 18.4687C2.61994 18.0569 2.85353 17.816 3.18874 17.5948C3.48678 17.4229 3.52055 17.4324 3.80035 17.347C3.82051 17.3413 3.68594 17.388 5.99603 16.5697C5.99603 16.5697 5.99613 16.5697 5.99623 16.5697L7.37591 16.0965C7.38515 16.7576 7.80867 17.3402 8.43673 17.5504C8.83435 17.6836 9.25243 17.757 9.68117 17.7702C9.70535 23.5664 9.64649 23.5141 9.70778 23.7726H9.46606ZM9.68112 16.608C9.68112 16.6176 9.68112 17.0135 9.68112 17.0085C9.335 16.9957 8.99842 16.9351 8.6786 16.8279C8.35456 16.7195 8.13687 16.4167 8.13687 16.0745C8.13595 15.1502 8.13834 15.7146 8.13544 14.6661C9.74485 15.2258 11.0115 14.7818 11.0976 14.7752L11.0967 14.7721L11.1018 14.7707L11.1027 14.7738C11.2354 14.7306 11.28 14.7338 11.5922 14.6137C11.5922 14.8664 11.5922 15.3592 11.5922 15.6175H10.6716C10.1255 15.6176 9.68112 16.0619 9.68112 16.608Z" fill="white"/>
</svg>
