<svg width="27" height="27" viewBox="0 0 27 27" fill="none" xmlns="http://www.w3.org/2000/svg">
<path d="M13.4936 10.8495C12.0373 10.8495 10.8525 12.0343 10.8525 13.4906C10.9853 16.9886 16.002 16.9882 16.1342 13.4905C16.1342 12.0343 14.9496 10.8495 13.4936 10.8495ZM13.4936 15.0756C12.6194 15.0756 11.9081 14.3645 11.9081 13.4906C11.9878 11.3904 14.9992 11.3904 15.0786 13.4906C15.0786 14.3646 14.3676 15.0756 13.4936 15.0756Z" fill="white"/>
<path d="M19.5871 17.712L20.1962 16.657C20.5438 16.0551 20.4461 15.2886 19.9587 14.7932L19.0197 13.8384C19.0197 13.8383 19.0196 13.8383 19.0196 13.8383C18.8308 13.6465 18.8308 13.3344 19.0196 13.1425L19.959 12.188C20.4458 11.6923 20.5434 10.9258 20.1962 10.3239L19.5871 9.26887C19.2396 8.66691 18.5267 8.3686 17.854 8.54309L16.5575 8.87883C16.2972 8.94628 16.027 8.79052 15.9552 8.53106L15.598 7.24106C15.4131 6.57076 14.7983 6.1026 14.1028 6.1026H12.8846C12.1897 6.1026 11.5746 6.57055 11.389 7.24064L11.0316 8.53132C10.96 8.79052 10.6899 8.9467 10.4291 8.87883L9.13312 8.5432C8.46017 8.36865 7.74733 8.66697 7.39972 9.26892L6.79053 10.3242C6.4435 10.9259 6.54115 11.6924 7.02841 12.1884L7.96752 13.1422C8.15616 13.3342 8.15616 13.6465 7.96774 13.8382L7.02825 14.793C6.54078 15.2885 6.44308 16.0549 6.79064 16.6568L7.39977 17.712C7.74748 18.3141 8.46022 18.6128 9.13306 18.4382L10.4289 18.1021C10.6898 18.0346 10.96 18.1907 11.0317 18.4503L11.389 19.7409C11.5748 20.4106 12.1898 20.8782 12.8846 20.8782H14.1028C14.7981 20.8782 15.4129 20.4103 15.5979 19.7407L15.9553 18.4499C16.0269 18.1906 16.2973 18.0345 16.5576 18.1019L17.8538 18.4381C18.5267 18.6128 19.2395 18.3142 19.5871 17.712ZM14.9379 18.1686L14.5805 19.4594C14.5214 19.6733 14.325 19.8227 14.1028 19.8227H12.8846C12.6624 19.8227 12.4656 19.6731 12.4063 19.4591L12.049 18.169C11.8276 17.3522 10.9605 16.8685 10.1643 17.0802L8.86795 17.4165C8.65308 17.4723 8.42507 17.3768 8.31387 17.1843L7.70473 16.1292C7.59368 15.9368 7.62488 15.6918 7.78063 15.5335L8.72032 14.5785C9.30993 13.9785 9.30993 13.0024 8.72001 12.4021L7.78095 11.4483C7.62503 11.2895 7.59374 11.0441 7.70473 10.8517L8.31376 9.79672C8.42481 9.60439 8.65255 9.50907 8.86811 9.56496L10.1641 9.90059C10.9791 10.1122 11.8246 9.62392 12.0488 8.81274L12.4062 7.52233C12.4655 7.30794 12.6622 7.15815 12.8845 7.15815H14.1027C14.3249 7.15815 14.5213 7.30767 14.5805 7.52222L14.9377 8.81253C15.1621 9.62397 16.0075 10.112 16.8223 9.90064L18.1188 9.56491C18.3341 9.50902 18.5619 9.60439 18.6729 9.79662L19.2819 10.8515C19.3929 11.0441 19.3617 11.2895 19.2061 11.4479L18.2671 12.4021C17.6766 13.0022 17.6766 13.9785 18.267 14.5786L19.206 15.5334C19.3618 15.6918 19.3931 15.9368 19.2819 16.1292L18.6728 17.1842C18.5617 17.3767 18.3339 17.4722 18.1187 17.4165L16.822 17.0801C16.0073 16.8695 15.1619 17.3578 14.9379 18.1686Z" fill="white"/>
<path d="M13.4934 3.95005C14.3535 3.95005 15.087 3.39887 15.36 2.63124L15.4847 2.65351C16.5817 2.8537 17.6378 3.21899 18.6246 3.73946C18.6413 3.75101 18.6589 3.76173 18.6773 3.77155C21.4846 5.26448 23.5075 7.90659 24.2273 11.0204C24.2917 11.3065 24.5838 11.4821 24.8604 11.4158C25.1444 11.3501 25.3214 11.0667 25.2557 10.7826C24.472 7.39178 22.2768 4.51099 19.2286 2.86938C19.2117 2.85761 19.194 2.84674 19.1754 2.83681C18.0768 2.24964 16.8988 1.83864 15.6724 1.6148L15.4342 1.57226C14.9089 -0.735121 11.5731 -0.418177 11.5126 1.96932C11.5126 3.06145 12.4012 3.95005 13.4934 3.95005ZM13.4934 1.04404C14.0036 1.04404 14.4186 1.4591 14.4186 1.96922C14.3721 3.19498 12.6145 3.19461 12.5682 1.96922C12.5682 1.4591 12.9832 1.04404 13.4934 1.04404Z" fill="white"/>
<path d="M13.4934 23.0501C12.6418 23.0501 11.9141 23.5904 11.6348 24.3461L11.5015 24.3238C10.3863 24.1198 9.31336 23.7453 8.31144 23.2099C0.708914 19.2057 0.546511 8.15745 8.02332 3.9332L7.78597 4.67735C7.69735 4.95502 7.85067 5.25201 8.1284 5.34058C8.18171 5.35763 8.23581 5.3657 8.28896 5.3657C8.51248 5.3657 8.72006 5.22256 8.79163 4.9982L9.40921 3.06228C9.49889 2.78123 9.33152 2.47394 9.04915 2.3934L7.19847 1.80295C6.92064 1.71433 6.6238 1.86766 6.53524 2.14533C6.44662 2.42306 6.59995 2.72 6.87762 2.80857L7.51035 3.0104C-0.696299 7.63624 -0.518642 19.7528 7.81494 24.1413C8.91366 24.7285 10.0916 25.1395 11.316 25.363C11.3186 25.3634 11.3212 25.3639 11.3238 25.3643L11.548 25.4018C12.0475 27.7318 15.4118 27.4335 15.4743 25.0309C15.4743 23.9388 14.5857 23.0501 13.4934 23.0501ZM13.4934 25.9562C12.9833 25.9562 12.5682 25.5411 12.5682 25.031C12.6147 23.8052 14.3723 23.8055 14.4186 25.031C14.4187 25.5411 14.0036 25.9562 13.4934 25.9562Z" fill="white"/>
<path d="M24.9003 15.328C24.6147 15.2683 24.3352 15.451 24.2754 15.7363C24.1972 16.1097 24.0997 16.4803 23.9857 16.8375C23.16 19.4259 21.4046 21.6079 19.0864 22.9762L19.3171 22.2531C19.4056 21.9754 19.2523 21.6784 18.9746 21.5899C18.6971 21.5013 18.4 21.6545 18.3114 21.9323L17.6938 23.8682C17.6047 24.1484 17.7712 24.4572 18.0538 24.5371L19.9045 25.1276C20.1746 25.216 20.4798 25.0654 20.5677 24.7852C20.6563 24.5074 20.503 24.2105 20.2253 24.1219L19.5744 23.9143C22.1388 22.4168 24.0807 20.0129 24.9914 17.1584C25.1163 16.7669 25.223 16.3613 25.3086 15.9529C25.3684 15.6675 25.1856 15.3878 24.9003 15.328Z" fill="white"/>
<path d="M25.5312 13.2272C25.4741 12.9459 25.1932 12.7557 24.9105 12.8129C24.2315 12.9825 24.4257 13.9517 25.1168 13.8479C25.3979 13.7918 25.5883 13.5089 25.5312 13.2272Z" fill="white"/>
</svg>
